<?xml version="1.0" encoding="UTF-8" standalone="no"?>
<!DOCTYPE svg PUBLIC "-//W3C//DTD SVG 1.1//EN" "http://www.w3.org/Graphics/SVG/1.1/DTD/svg11.dtd">

<!-- Created with Vectornator (http://vectornator.io/) -->
<svg height="100%" stroke-miterlimit="10" style="fill-rule:nonzero;clip-rule:evenodd;stroke-linecap:round;stroke-linejoin:round;" version="1.1" viewBox="0 0 1024 1024" width="100%" xml:space="preserve" xmlns="http://www.w3.org/2000/svg" xmlns:vectornator="http://vectornator.io" xmlns:xlink="http://www.w3.org/1999/xlink">
<metadata>
<vectornator:setting key="IsTimeLapseWatermarkDisabled" value="false"/>
<vectornator:setting key="UndoHistoryDisabled" value="true"/>
<vectornator:setting key="VNDimensionsVisible" value="true"/>
<vectornator:setting key="VNSnapToGuides" value="true"/>
<vectornator:setting key="WDCMYKEnabledKey" value="false"/>
<vectornator:setting key="WDDisplayWhiteBackground" value="false"/>
<vectornator:setting key="WDDynamicGuides" value="false"/>
<vectornator:setting key="WDGuidesVisible" value="true"/>
<vectornator:setting key="WDIsolateActiveLayer" value="false"/>
<vectornator:setting key="WDOutlineMode" value="false"/>
<vectornator:setting key="WDRulersVisible" value="true"/>
<vectornator:setting key="WDSnapToEdges" value="false"/>
<vectornator:setting key="WDSnapToGrid" value="false"/>
<vectornator:setting key="WDSnapToPoints" value="false"/>
<vectornator:setting key="WDUnits" value="Pixels"/>
</metadata>
<defs>
<clipPath id="TextBounds">
<rect height="190.548" width="1007.78" x="8.1085" y="814.813"/>
</clipPath>
</defs>
<clipPath id="ArtboardFrame">
<rect height="1024" width="1024" x="0" y="0"/>
</clipPath>
<g clip-path="url(#ArtboardFrame)" id="Layer-1" opacity="0.315599" vectornator:layerName="Layer 1">
<g opacity="1">
<path d="M602.082 54.9809C436.516 97.3416 292.166 222.092 240.582 369.383C364.965 373.269 486.435 362.388 602.082 348.785L602.082 54.9809Z" fill="#ffffff" fill-rule="evenodd" opacity="1" stroke="none"/>
<path d="M766.4 266.784C766.4 274.557 759.744 281.164 751.008 281.164L598.754 281.164L598.754 252.794L751.008 252.794C759.744 252.405 766.4 258.623 766.4 266.784Z" fill="#dddddd" fill-rule="evenodd" opacity="1" stroke="none"/>
<path d="M599.17 216.263L675.297 216.263C700.673 216.263 721.057 197.22 721.057 173.513L721.057 85.6827C741.856 78.6874 754.752 58.8672 751.008 38.2698C747.264 17.6724 728.129 2.90446 706.081 2.90446C684.033 2.90446 664.897 18.061 661.153 38.2698C657.409 58.8672 669.889 78.6874 691.105 85.6827L691.105 173.513C691.105 181.286 684.449 187.892 675.713 187.892L599.586 187.892L599.586 216.263L599.17 216.263ZM705.665 68.9716C691.521 68.9716 680.289 58.4786 680.289 45.2652C680.289 32.0517 691.521 21.5587 705.665 21.5587C719.809 21.5587 731.041 32.0517 731.041 45.2652C731.041 58.4786 719.809 68.9716 705.665 68.9716Z" fill="#dddddd" fill-rule="evenodd" opacity="1" stroke="none"/>
<path d="M979.39 456.825L979.39 456.825C1002.69 456.825 1022.24 440.502 1024.73 419.128C1027.23 397.753 1012.25 377.544 989.789 372.881C967.326 367.828 944.446 379.487 936.542 400.085L598.754 400.085L598.754 428.455L936.542 428.455C943.198 445.166 960.254 456.436 979.39 456.825ZM980.638 437.782C966.494 437.782 955.262 427.289 955.262 414.075C955.262 400.862 966.494 390.369 980.638 390.369C994.782 390.369 1006.01 400.862 1006.01 414.075C1006.01 427.289 994.365 437.782 980.638 437.782Z" fill="#dddddd" fill-rule="evenodd" opacity="1" stroke="none"/>
<g opacity="1">
<path d="M565.475 14.952C556.739 15.7293 548.003 16.8952 539.267 18.061C511.395 21.9473 483.523 30.1086 456.9 38.2698C403.652 55.3696 352.901 76.7442 302.982 100.839C307.142 112.887 314.213 123.38 320.037 134.65C320.869 136.593 323.365 140.091 320.869 141.645C315.045 145.532 308.39 147.864 302.982 152.527C291.75 161.854 282.182 173.513 274.278 185.561C262.214 203.826 252.23 222.869 242.662 242.689C227.687 271.837 215.207 302.538 204.391 333.24C200.231 345.676 195.655 358.113 191.495 370.549C154.055 372.103 120.36 382.985 85.4162 394.255C65.8644 400.473 46.7287 408.246 27.1769 415.63C16.777 419.905 6.79313 423.014-2.35876 428.843L602.082 428.843L602.082 359.667L602.082 340.236C495.587 352.672 383.269 362.776 268.87 359.278C316.293 223.258 449.828 108.223 602.082 68.9716L602.082 14.5634C589.602 14.1748 577.538 13.7861 565.475 14.952Z" fill="#1c2b3f" fill-rule="evenodd" opacity="1" stroke="none"/>
<path d="M602.082 100.062C471.46 131.541 357.061 224.424 316.293 334.017C414.468 336.738 510.979 328.965 602.082 318.861L602.082 100.062Z" fill="#42aa8c" fill-rule="evenodd" opacity="1" stroke="none"/>
</g>
<path d="M450.244 232.196C443.172 232.196 436.932 237.637 436.932 244.633C436.932 247.353 438.18 250.073 439.844 252.405L473.124 290.491C475.62 293.211 479.364 294.766 483.108 294.766C487.267 294.377 491.011 292.434 493.091 289.325L562.563 184.783L562.563 184.783C563.395 184.006 562.979 182.063 561.731 180.897C560.067 179.731 557.987 179.731 556.323 180.897L556.323 180.897L556.323 180.897L486.435 254.737C485.187 255.903 483.524 255.903 482.276 255.126L482.276 255.126L458.98 235.305C456.484 233.362 453.572 232.196 450.244 232.196L450.244 232.196Z" fill="#ffffff" fill-rule="evenodd" opacity="1" stroke="none"/>
<path d="M902.847 181.674C899.103 161.077 879.967 146.309 857.919 146.309C835.871 146.309 816.736 161.466 812.992 181.674C809.248 201.883 821.728 222.092 842.943 229.087L842.943 302.927C842.943 310.7 836.287 317.306 827.551 317.306L602.082 317.306L602.082 345.676L827.551 345.676L827.551 345.676C852.927 345.676 873.311 326.634 873.311 302.927L873.311 229.087C893.695 222.092 906.59 202.272 902.847 181.674ZM858.335 212.765C844.191 212.765 832.959 202.272 832.959 189.058C832.959 175.845 844.191 165.352 858.335 165.352C872.479 165.352 883.711 175.845 883.711 189.058C883.711 202.272 872.479 212.765 858.335 212.765Z" fill="#dddddd" fill-rule="evenodd" opacity="1" stroke="none"/>
<g opacity="1">
<path d="M71.6884 526.389L135.752 526.389L188.167 605.67L240.582 526.389L304.646 526.389L304.646 731.198L244.326 731.198L244.326 613.443L188.583 693.501L187.335 693.501L131.592 613.831L131.592 730.809L71.6884 730.809L71.6884 526.389Z" fill="#1c2b3f" fill-rule="evenodd" opacity="1" stroke="none"/>
<path d="M429.444 735.473C413.636 735.473 399.076 732.752 385.349 727.7C371.621 722.259 359.557 715.264 349.573 705.548C339.589 696.221 331.269 684.951 325.445 671.737C319.621 658.912 316.709 644.533 316.709 629.377L316.709 628.599C316.709 613.831 319.621 599.841 325.445 587.016C331.269 574.191 339.173 562.921 349.573 553.205C359.973 543.489 372.037 536.105 386.181 530.664C400.324 525.224 415.716 522.503 432.356 522.503C443.588 522.503 453.988 523.669 463.14 525.612C472.292 527.555 480.612 530.664 488.515 534.551C496.003 538.437 503.075 542.712 509.315 548.153C515.555 553.594 520.963 559.034 525.955 565.253L480.196 598.286C473.956 590.902 466.884 585.073 459.396 580.798C451.908 576.523 442.756 574.191 432.356 574.191C424.452 574.191 417.38 575.746 411.14 578.466C404.9 581.186 399.492 585.073 394.501 590.125C389.925 595.177 386.181 600.618 383.685 607.225C381.189 613.831 379.941 620.827 379.941 628.211L379.941 628.988C379.941 636.76 381.189 643.756 383.685 650.363C386.181 656.969 389.925 662.799 394.501 667.851C399.076 672.903 404.484 676.401 411.14 679.51C417.38 682.23 424.452 683.785 432.356 683.785C438.18 683.785 443.172 683.007 447.748 681.842C452.324 680.676 456.9 679.121 460.644 676.789C464.388 674.458 468.132 671.737 471.46 669.017C474.788 665.908 478.116 662.799 481.444 658.912L527.203 689.226C521.795 695.832 516.387 702.05 510.147 707.491C503.907 713.321 496.835 717.984 489.347 722.259C481.444 726.534 472.708 729.643 463.14 731.975C452.324 734.307 441.508 735.473 429.444 735.473Z" fill="#1c2b3f" fill-rule="evenodd" opacity="1" stroke="none"/>
<path d="M862.079 734.695C842.527 734.695 823.807 731.975 806.336 726.145C788.864 720.316 773.056 711.766 759.328 700.496L793.024 662.799C815.072 679.121 838.783 687.282 864.159 687.282C872.479 687.282 878.303 686.117 882.879 683.785C887.039 681.453 889.119 677.955 889.119 673.292L889.119 672.903C889.119 670.571 888.703 669.017 887.455 667.074C886.207 665.519 884.543 663.965 881.631 662.41C878.719 660.856 874.975 659.301 870.399 657.747C865.823 656.192 859.583 654.637 852.095 653.083C840.447 650.751 829.631 647.642 819.648 644.922C809.664 641.813 800.928 637.926 793.44 633.263C785.952 628.599 780.128 622.381 775.968 615.386C771.808 608.39 769.728 599.452 769.728 588.959L769.728 588.182C769.728 578.466 771.808 569.916 775.552 561.755C779.296 553.594 785.12 546.987 792.608 541.157C800.096 535.328 808.832 530.664 819.232 527.555C829.631 524.446 841.279 522.892 854.591 522.892C873.311 522.892 889.951 525.224 904.927 529.887C919.486 534.551 932.798 541.157 944.862 550.485L914.494 590.513C904.511 583.907 894.111 578.855 883.711 575.357C873.311 571.859 862.911 570.305 853.343 570.305C845.855 570.305 840.447 571.471 836.703 574.191C832.959 576.911 831.295 580.02 831.295 583.518L831.295 584.295C831.295 586.627 831.711 588.57 832.959 590.513C834.207 592.457 836.287 594.011 838.783 595.177C841.695 596.732 845.439 598.286 850.431 599.452C855.423 601.007 861.663 602.561 869.151 604.116C881.631 606.836 892.863 609.556 903.263 613.054C913.246 616.552 921.982 620.438 929.054 625.49C936.126 630.542 941.534 636.372 945.278 642.979C949.022 649.974 951.102 658.135 951.102 667.462L951.102 668.24C951.102 678.733 949.022 688.06 944.862 696.221C940.702 704.382 934.462 711.378 926.974 717.207C919.07 723.036 909.918 727.311 899.103 730.42C887.871 733.141 875.807 734.695 862.079 734.695Z" fill="#1c2b3f" fill-rule="evenodd" opacity="1" stroke="none"/>
<path d="M650.754 740.525C634.946 740.525 620.386 737.804 606.658 732.752C592.93 727.311 580.866 720.316 570.882 710.6C560.899 701.273 552.579 690.003 546.755 676.789C540.931 663.965 538.019 649.585 538.019 634.429L538.019 633.651C538.019 618.884 540.931 604.893 546.755 592.068C552.579 579.243 560.483 567.973 570.882 558.257C581.282 548.541 593.346 541.157 607.49 535.717C621.634 530.276 637.026 527.555 653.665 527.555C664.897 527.555 675.297 528.721 684.449 530.664C693.601 532.608 701.921 535.717 709.825 539.603C717.313 543.489 724.385 547.764 730.625 553.205C736.864 558.646 742.272 564.087 747.264 570.305L701.505 603.338C695.265 595.954 688.193 590.125 680.705 585.85C673.217 581.575 664.065 579.243 653.665 579.243C645.762 579.243 638.69 580.798 632.45 583.518C626.21 586.239 620.802 590.125 615.81 595.177C611.234 600.229 607.49 605.67 604.994 612.277C602.498 618.884 601.25 625.879 601.25 633.263L601.25 634.04C601.25 641.813 602.498 648.808 604.994 655.415C607.49 662.021 611.234 667.851 615.81 672.903C620.386 677.955 625.794 681.453 632.45 684.562C638.69 687.282 645.762 688.837 653.665 688.837C659.489 688.837 664.481 688.06 669.057 686.894C673.633 685.728 678.209 684.173 681.953 681.842C685.697 679.51 689.441 676.789 692.769 674.069C696.097 670.96 699.425 667.851 702.753 663.965L748.512 694.278C743.104 700.884 737.696 707.103 731.457 712.543C725.217 718.373 718.145 723.036 710.657 727.311C702.753 731.586 694.017 734.695 684.449 737.027C674.049 739.359 663.233 740.525 650.754 740.525Z" fill="#1c2b3f" fill-rule="evenodd" opacity="1" stroke="none"/>
</g>
<path d="M72.9364 793.378L182.343 792.601L292.166 791.824L511.395 791.435L730.625 791.824L840.031 792.601L949.854 793.378L840.031 794.544L730.625 794.933L511.395 795.322L292.166 794.933L182.343 794.544L72.9364 793.378Z" fill="#42aa8c" fill-rule="evenodd" opacity="1" stroke="none"/>
<g opacity="0">
<path d="M89.5762 867.996L91.6562 867.996L121.192 907.247L150.727 867.996L152.807 867.996L152.807 930.954L150.727 930.954L150.727 871.105L121.608 909.968L121.608 909.968L92.4881 871.105L92.4881 930.954L89.5762 930.954L89.5762 867.996Z" fill="#1c2b3f" fill-rule="evenodd" opacity="1" stroke="none"/>
<path d="M173.191 867.996L175.271 867.996L175.271 930.954L173.191 930.954L173.191 867.996Z" fill="#1c2b3f" fill-rule="evenodd" opacity="1" stroke="none"/>
<path d="M196.071 867.996L197.735 867.996L248.902 927.845L248.902 867.996L250.982 867.996L250.982 930.954L249.318 930.954L198.151 871.105L198.151 930.954L196.071 930.954C196.071 930.954 196.071 867.996 196.071 867.996Z" fill="#1c2b3f" fill-rule="evenodd" opacity="1" stroke="none"/>
<path d="M272.198 867.996L274.278 867.996L274.278 930.954L272.198 930.954L272.198 867.996Z" fill="#1c2b3f" fill-rule="evenodd" opacity="1" stroke="none"/>
<path d="M295.078 867.996L296.742 867.996L347.909 927.845L347.909 867.996L349.989 867.996L349.989 930.954L348.325 930.954L297.158 871.105L297.158 930.954L295.078 930.954L295.078 867.996Z" fill="#1c2b3f" fill-rule="evenodd" opacity="1" stroke="none"/>
<path d="M367.045 899.475L367.045 899.475C367.045 882.375 379.941 866.83 400.324 866.83C410.724 866.83 416.964 869.55 423.62 874.991L422.372 876.545C416.132 871.882 409.892 868.773 400.324 868.773C381.189 868.773 369.125 883.929 369.125 899.475L369.125 899.475C369.125 915.797 380.773 930.176 400.324 930.176C410.308 930.176 418.628 925.901 424.452 921.627L424.452 901.418L399.492 901.418L399.492 899.475L426.532 899.475L426.532 922.404C420.292 927.845 411.14 932.12 400.324 932.12C379.525 932.12 367.045 917.352 367.045 899.475Z" fill="#1c2b3f" fill-rule="evenodd" opacity="1" stroke="none"/>
<path d="M469.38 899.475L469.38 899.475C469.38 881.598 483.108 866.83 502.659 866.83C515.555 866.83 522.211 871.105 528.451 876.934L527.203 878.1C521.795 873.048 515.139 868.384 503.075 868.384C485.188 868.384 472.292 882.764 472.292 899.086L472.292 899.086C472.292 915.797 485.603 929.788 503.075 929.788C513.891 929.788 522.211 924.736 527.619 919.683L529.283 920.849C523.459 926.679 514.723 931.731 503.075 931.731C483.523 932.12 469.38 917.352 469.38 899.475Z" fill="#1c2b3f" fill-rule="evenodd" opacity="1" stroke="none"/>
<path d="M542.595 867.996L544.675 867.996L544.675 898.309L592.93 898.309L592.93 867.996L595.01 867.996L595.01 930.954L592.93 930.954L592.93 899.863L544.675 899.863L544.675 930.954L542.595 930.954C542.595 930.954 542.595 867.996 542.595 867.996Z" fill="#1c2b3f" fill-rule="evenodd" opacity="1" stroke="none"/>
<path d="M641.186 867.607L642.85 867.607L675.297 931.342L672.801 931.342L663.233 912.299L619.97 912.299L610.402 931.342L608.322 931.342L641.186 867.607ZM662.817 910.356L642.434 869.939L622.05 910.356L662.817 910.356Z" fill="#1c2b3f" fill-rule="evenodd" opacity="1" stroke="none"/>
<path d="M689.441 867.996L716.897 867.996C725.633 867.996 732.289 869.939 736.449 873.825C739.36 876.545 741.44 880.82 741.44 885.484L741.44 885.484C741.44 895.977 732.289 902.584 719.393 902.972L741.856 930.565L739.36 930.565L716.897 902.972L716.481 902.972L691.521 902.972L691.521 930.565L689.441 930.565C689.441 930.565 689.441 867.996 689.441 867.996ZM715.649 901.806C731.457 901.806 738.944 894.811 738.944 885.872L738.944 885.872C738.944 875.768 730.625 869.939 716.481 869.939L691.105 869.939L691.105 901.806L715.649 901.806Z" fill="#1c2b3f" fill-rule="evenodd" opacity="1" stroke="none"/>
<path d="M775.136 869.55L750.592 869.55L750.592 867.607L801.76 867.607L801.76 869.55L777.216 869.55L777.216 930.954L775.136 930.954L775.136 869.55Z" fill="#1c2b3f" fill-rule="evenodd" opacity="1" stroke="none"/>
<path d="M814.24 867.996L861.247 867.996L861.247 869.939L816.32 869.939L816.32 898.697L857.087 898.697L857.087 900.64L816.32 900.64L816.32 929.788L862.079 929.788L862.079 931.731L814.24 931.731L814.24 867.996Z" fill="#1c2b3f" fill-rule="evenodd" opacity="1" stroke="none"/>
<path d="M878.303 867.996L905.759 867.996C914.494 867.996 921.15 869.939 925.31 873.825C928.222 876.545 930.302 880.82 930.302 885.484L930.302 885.484C930.302 895.977 921.15 902.584 908.255 902.972L930.718 930.565L928.222 930.565L905.759 902.972L905.343 902.972L880.383 902.972L880.383 930.565L878.303 930.565C878.303 930.565 878.303 867.996 878.303 867.996ZM904.927 901.806C920.734 901.806 928.222 894.811 928.222 885.872L928.222 885.872C928.222 875.768 919.902 869.939 905.759 869.939L880.383 869.939L880.383 901.806L904.927 901.806Z" fill="#1c2b3f" fill-rule="evenodd" opacity="1" stroke="none"/>
<path d="M85.0002 993.134L85.0002 993.134C85.0002 978.755 96.2321 966.708 112.04 966.708C122.44 966.708 127.848 970.205 132.84 974.869L131.592 976.035C127.016 972.148 121.608 968.262 112.04 968.262C97.4801 968.262 87.0802 979.921 87.0802 993.134L87.0802 993.134C87.0802 1006.74 97.8961 1018.01 112.04 1018.01C120.776 1018.01 127.432 1014.12 132.008 1009.85L133.256 1011.01C128.68 1015.67 121.608 1019.56 112.04 1019.56C96.6481 1019.56 85.0002 1007.9 85.0002 993.134Z" fill="#1c2b3f" fill-rule="evenodd" opacity="1" stroke="none"/>
<path d="M140.328 993.134L140.328 993.134C140.328 979.144 151.143 966.708 167.367 966.708C183.591 966.708 194.407 979.144 194.407 993.134L194.407 993.134C194.407 1007.13 183.591 1019.56 167.367 1019.56C151.143 1019.56 140.328 1007.13 140.328 993.134ZM193.159 993.134L193.159 993.134C193.159 979.921 182.759 967.873 167.783 967.873C152.391 967.873 142.408 979.532 142.408 992.746L142.408 992.746C142.408 1005.96 152.807 1017.62 167.783 1017.62C182.759 1018.01 193.159 1006.35 193.159 993.134Z" fill="#1c2b3f" fill-rule="evenodd" opacity="1" stroke="none"/>
<path d="M208.551 967.485L210.215 967.485L233.926 999.353L257.638 967.485L259.302 967.485L259.302 1018.78L257.638 1018.78L257.638 970.205L233.926 1001.68L233.926 1001.68L210.215 970.205L210.215 1018.78L208.551 1018.78C208.551 1018.78 208.551 967.485 208.551 967.485Z" fill="#1c2b3f" fill-rule="evenodd" opacity="1" stroke="none"/>
<path d="M275.526 967.485L294.662 967.485C307.974 967.485 315.877 973.314 315.877 982.641L315.877 982.641C315.877 992.746 307.558 998.187 294.662 998.187L277.606 998.187L277.606 1018.4L275.942 1018.4L275.942 967.485L275.526 967.485ZM294.662 997.021C306.726 997.021 314.214 991.969 314.214 983.03L314.214 983.03C314.214 974.48 307.142 969.039 294.662 969.039L277.19 969.039L277.19 997.021L294.662 997.021Z" fill="#1c2b3f" fill-rule="evenodd" opacity="1" stroke="none"/>
<path d="M327.941 967.485L329.605 967.485L329.605 1017.23L363.301 1017.23L363.301 1018.78L327.941 1018.78C327.941 1018.78 327.941 967.485 327.941 967.485Z" fill="#1c2b3f" fill-rule="evenodd" opacity="1" stroke="none"/>
<path d="M374.117 967.485L375.781 967.485L375.781 1018.78L374.117 1018.78L374.117 967.485Z" fill="#1c2b3f" fill-rule="evenodd" opacity="1" stroke="none"/>
<path d="M413.636 967.096L415.3 967.096L441.508 1018.4L439.428 1018.4L431.524 1003.24L396.581 1003.24L388.677 1018.4L387.013 1018.4L413.636 967.096ZM431.108 1002.07L414.468 969.428L397.829 1002.07L431.108 1002.07Z" fill="#1c2b3f" fill-rule="evenodd" opacity="1" stroke="none"/>
<path d="M452.74 967.485L454.404 967.485L496.003 1016.06L496.003 967.485L497.667 967.485L497.667 1018.78L496.003 1018.78L454.404 970.205L454.404 1018.78L452.74 1018.78L452.74 967.485Z" fill="#1c2b3f" fill-rule="evenodd" opacity="1" stroke="none"/>
<path d="M511.395 993.134L511.395 993.134C511.395 978.755 522.627 966.708 538.435 966.708C548.835 966.708 554.243 970.205 559.235 974.869L557.987 976.035C553.411 972.148 548.003 968.262 538.435 968.262C523.875 968.262 513.475 979.921 513.475 993.134L513.475 993.134C513.475 1006.74 524.291 1018.01 538.435 1018.01C547.171 1018.01 553.827 1014.12 558.403 1009.85L559.651 1011.01C555.075 1015.67 548.003 1019.56 538.435 1019.56C522.627 1019.56 511.395 1007.9 511.395 993.134Z" fill="#1c2b3f" fill-rule="evenodd" opacity="1" stroke="none"/>
<path d="M570.467 967.485L608.738 967.485L608.738 969.039L572.13 969.039L572.13 992.357L605.41 992.357L605.41 993.912L572.13 993.912L572.13 1017.62L609.154 1017.62L609.154 1019.17L570.466 1019.17C570.466 1019.17 570.466 967.485 570.467 967.485Z" fill="#1c2b3f" fill-rule="evenodd" opacity="1" stroke="none"/>
<path d="M640.354 1011.4L641.602 1010.23C647.01 1015.29 654.081 1018.01 661.985 1018.01C672.385 1018.01 678.625 1012.95 678.625 1005.96L678.625 1005.96C678.625 999.741 674.465 996.244 660.737 993.523C647.01 990.803 642.018 987.305 642.018 979.921L642.018 979.921C642.018 972.926 649.506 966.708 659.905 966.708C666.977 966.708 673.633 969.039 678.625 972.537L677.377 973.703C672.385 970.205 666.561 967.873 659.905 967.873C650.338 967.873 644.098 973.314 644.098 979.532L644.098 979.532C644.098 985.75 648.258 988.86 661.569 991.58C675.713 994.3 680.289 998.187 680.289 1005.18L680.289 1005.18C680.289 1012.95 673.217 1018.78 661.569 1018.78C653.666 1019.56 646.178 1016.45 640.354 1011.4Z" fill="#1c2b3f" fill-rule="evenodd" opacity="1" stroke="none"/>
<path d="M708.577 997.409L685.281 967.873L687.361 967.873L709.409 996.243L731.041 967.873L733.121 967.873L710.241 997.409L710.241 1018.78L708.577 1018.78C708.577 1018.78 708.577 997.409 708.577 997.409Z" fill="#1c2b3f" fill-rule="evenodd" opacity="1" stroke="none"/>
<path d="M736.865 1011.4L738.113 1010.23C743.52 1015.29 750.592 1018.01 758.496 1018.01C768.896 1018.01 775.136 1012.95 775.136 1005.96L775.136 1005.96C775.136 999.741 770.976 996.244 757.248 993.523C743.52 990.803 738.529 987.305 738.529 979.921L738.529 979.921C738.529 972.926 746.016 966.708 756.416 966.708C763.488 966.708 770.144 969.039 775.136 972.537L773.888 973.703C768.896 970.205 763.072 967.873 756.416 967.873C746.848 967.873 740.608 973.314 740.608 979.532L740.608 979.532C740.608 985.75 744.768 988.86 758.08 991.58C772.224 994.3 776.8 998.187 776.8 1005.18L776.8 1005.18C776.8 1012.95 769.728 1018.78 758.08 1018.78C750.176 1019.56 742.688 1016.45 736.865 1011.4Z" fill="#1c2b3f" fill-rule="evenodd" opacity="1" stroke="none"/>
<path d="M803.008 969.039L783.04 969.039L783.04 967.485L824.223 967.485L824.223 969.039L805.088 969.039L805.088 1018.78L803.424 1018.78L803.424 969.039L803.008 969.039Z" fill="#1c2b3f" fill-rule="evenodd" opacity="1" stroke="none"/>
<path d="M835.039 967.485L873.311 967.485L873.311 969.039L836.703 969.039L836.703 992.357L869.983 992.357L869.983 993.912L836.703 993.912L836.703 1017.62L873.727 1017.62L873.727 1019.17L835.039 1019.17C835.039 1019.17 835.039 967.485 835.039 967.485Z" fill="#1c2b3f" fill-rule="evenodd" opacity="1" stroke="none"/>
<path d="M886.623 967.485L888.287 967.485L911.998 999.353L935.71 967.485L937.374 967.485L937.374 1018.78L935.71 1018.78L935.71 970.205L911.998 1001.68L911.998 1001.68L888.287 970.205L888.287 1018.78L886.623 1018.78L886.623 967.485Z" fill="#1c2b3f" fill-rule="evenodd" opacity="1" stroke="none"/>
</g>
</g>
<g fill="#1c2b3f" opacity="1" stroke="none">
<path clip-path="url(#TextBounds)" d="M257.975 873.813L247.185 873.813L247.185 818.394L264.028 818.394L274.105 861.97L284.106 818.394L300.761 818.394L300.761 873.813L289.971 873.813L289.971 836.328C289.971 835.251 289.983 833.74 290.008 831.798C290.033 829.855 290.046 828.358 290.046 827.305L279.556 873.813L268.315 873.813L257.9 827.305C257.9 828.358 257.913 829.855 257.938 831.798C257.963 833.74 257.975 835.251 257.975 836.328L257.975 873.813Z" fill-rule="evenodd"/>
<path clip-path="url(#TextBounds)" d="M321.666 832.832L321.666 873.813L310.8 873.813L310.8 832.832L321.666 832.832ZM321.666 818.056L321.666 827.944L310.8 827.944L310.8 818.056L321.666 818.056Z" fill-rule="evenodd"/>
<path clip-path="url(#TextBounds)" d="M351.33 840.765C347.696 840.765 345.202 842.306 343.848 845.389C343.146 847.019 342.796 849.099 342.796 851.631L342.796 873.813L332.118 873.813L332.118 832.907L342.457 832.907L342.457 838.885C343.836 836.78 345.139 835.263 346.367 834.336C348.573 832.681 351.368 831.854 354.752 831.854C358.988 831.854 362.453 832.963 365.147 835.182C367.842 837.4 369.189 841.078 369.189 846.217L369.189 873.813L358.211 873.813L358.211 848.886C358.211 846.73 357.922 845.076 357.346 843.923C356.293 841.818 354.288 840.765 351.33 840.765Z" fill-rule="evenodd"/>
<path clip-path="url(#TextBounds)" d="M390.093 832.832L390.093 873.813L379.228 873.813L379.228 832.832L390.093 832.832ZM390.093 818.056L390.093 827.944L379.228 827.944L379.228 818.056L390.093 818.056Z" fill-rule="evenodd"/>
<path clip-path="url(#TextBounds)" d="M419.758 840.765C416.123 840.765 413.629 842.306 412.276 845.389C411.574 847.019 411.223 849.099 411.223 851.631L411.223 873.813L400.546 873.813L400.546 832.907L410.885 832.907L410.885 838.885C412.263 836.78 413.567 835.263 414.795 834.336C417.001 832.681 419.796 831.854 423.179 831.854C427.415 831.854 430.881 832.963 433.575 835.182C436.27 837.4 437.617 841.078 437.617 846.217L437.617 873.813L426.638 873.813L426.638 848.886C426.638 846.73 426.35 845.076 425.774 843.923C424.721 841.818 422.716 840.765 419.758 840.765Z" fill-rule="evenodd"/>
<path clip-path="url(#TextBounds)" d="M459.085 880.994C460.238 881.972 462.181 882.461 464.913 882.461C468.773 882.461 471.354 881.17 472.658 878.588C473.51 876.934 473.936 874.152 473.936 870.242L473.936 867.61C472.908 869.364 471.806 870.68 470.628 871.557C468.497 873.187 465.727 874.001 462.318 874.001C457.055 874.001 452.85 872.153 449.704 868.456C446.559 864.759 444.986 859.752 444.986 853.435C444.986 847.345 446.502 842.225 449.535 838.077C452.568 833.928 456.867 831.854 462.431 831.854C464.487 831.854 466.279 832.168 467.808 832.794C470.414 833.872 472.52 835.852 474.124 838.735L474.124 832.832L484.539 832.832L484.539 871.708C484.539 876.997 483.649 880.982 481.869 883.664C478.811 888.276 472.946 890.582 464.274 890.582C459.035 890.582 454.761 889.554 451.453 887.499C448.144 885.443 446.314 882.373 445.963 878.287L457.619 878.287C457.92 879.541 458.408 880.443 459.085 880.994ZM457.28 859.827C458.734 863.286 461.341 865.015 465.101 865.015C467.607 865.015 469.725 864.069 471.455 862.177C473.184 860.284 474.049 857.27 474.049 853.135C474.049 849.249 473.228 846.292 471.586 844.262C469.945 842.231 467.745 841.216 464.988 841.216C461.228 841.216 458.634 842.983 457.205 846.517C456.453 848.397 456.077 850.716 456.077 853.473C456.077 855.854 456.478 857.972 457.28 859.827Z" fill-rule="evenodd"/>
<path clip-path="url(#TextBounds)" d="M545.898 869.678C541.762 873.462 536.474 875.355 530.032 875.355C522.061 875.355 515.795 872.798 511.233 867.685C506.671 862.547 504.39 855.503 504.39 846.555C504.39 836.88 506.984 829.423 512.173 824.184C516.685 819.623 522.425 817.342 529.393 817.342C538.717 817.342 545.535 820.4 549.846 826.515C552.227 829.949 553.505 833.396 553.681 836.855L542.101 836.855C541.349 834.198 540.384 832.193 539.206 830.839C537.1 828.433 533.98 827.23 529.844 827.23C525.633 827.23 522.312 828.928 519.88 832.324C517.449 835.721 516.233 840.527 516.233 846.743C516.233 852.959 517.518 857.615 520.087 860.71C522.656 863.806 525.921 865.354 529.881 865.354C533.942 865.354 537.038 864.025 539.168 861.368C540.346 859.94 541.324 857.797 542.101 854.939L553.568 854.939C552.565 860.98 550.009 865.893 545.898 869.678Z" fill-rule="evenodd"/>
<path clip-path="url(#TextBounds)" d="M598.572 849.751L598.572 873.813L587.631 873.813L587.631 848.886C587.631 846.68 587.255 844.901 586.504 843.547C585.526 841.642 583.671 840.69 580.939 840.69C578.107 840.69 575.957 841.636 574.491 843.528C573.025 845.421 572.292 848.122 572.292 851.631L572.292 873.813L561.614 873.813L561.614 818.582L572.292 818.582L572.292 838.171C573.846 835.79 575.644 834.129 577.687 833.189C579.73 832.249 581.879 831.779 584.135 831.779C586.666 831.779 588.966 832.218 591.034 833.095C593.102 833.972 594.8 835.313 596.129 837.118C597.256 838.647 597.946 840.22 598.196 841.836C598.447 843.453 598.572 846.091 598.572 849.751Z" fill-rule="evenodd"/>
<path clip-path="url(#TextBounds)" d="M610.115 837.268C612.947 833.659 617.81 831.854 624.703 831.854C629.189 831.854 633.175 832.744 636.659 834.524C640.143 836.303 641.885 839.662 641.885 844.6L641.885 863.399C641.885 864.702 641.91 866.281 641.96 868.136C642.035 869.54 642.248 870.492 642.599 870.993C642.95 871.495 643.476 871.908 644.178 872.234L644.178 873.813L632.523 873.813C632.197 872.986 631.972 872.209 631.846 871.482C631.721 870.755 631.621 869.928 631.546 869.001C630.067 870.605 628.362 871.971 626.432 873.099C624.126 874.427 621.519 875.092 618.612 875.092C614.902 875.092 611.838 874.033 609.419 871.915C607.001 869.797 605.791 866.795 605.791 862.91C605.791 857.872 607.734 854.225 611.619 851.969C613.749 850.741 616.882 849.864 621.018 849.337L624.665 848.886C626.645 848.635 628.061 848.322 628.914 847.946C630.443 847.294 631.207 846.279 631.207 844.901C631.207 843.221 630.624 842.062 629.459 841.423C628.293 840.784 626.583 840.464 624.327 840.464C621.795 840.464 620.003 841.091 618.95 842.344C618.198 843.271 617.697 844.525 617.446 846.104L607.107 846.104C607.333 842.519 608.335 839.574 610.115 837.268ZM618.086 866.068C619.088 866.895 620.316 867.309 621.77 867.309C624.076 867.309 626.2 866.632 628.143 865.279C630.085 863.925 631.094 861.456 631.17 857.872L631.17 853.887C630.493 854.313 629.81 854.657 629.12 854.92C628.431 855.184 627.485 855.428 626.282 855.654L623.876 856.105C621.62 856.506 620.003 856.995 619.025 857.571C617.371 858.549 616.544 860.065 616.544 862.12C616.544 863.95 617.058 865.266 618.086 866.068Z" fill-rule="evenodd"/>
<path clip-path="url(#TextBounds)" d="M672.001 842.72C667.689 842.72 664.794 844.124 663.316 846.931C662.488 848.51 662.075 850.941 662.075 854.225L662.075 873.813L651.284 873.813L651.284 832.832L661.511 832.832L661.511 839.975C663.165 837.243 664.606 835.376 665.835 834.373C667.84 832.694 670.447 831.854 673.655 831.854C673.855 831.854 674.025 831.861 674.162 831.873C674.3 831.886 674.607 831.904 675.084 831.929L675.084 842.908C674.407 842.833 673.805 842.783 673.279 842.758C672.753 842.733 672.326 842.72 672.001 842.72Z" fill-rule="evenodd"/>
<path clip-path="url(#TextBounds)" d="M700.124 866.181L700.124 874.189L695.048 874.377C689.985 874.553 686.526 873.675 684.671 871.745C683.468 870.517 682.866 868.625 682.866 866.068L682.866 840.84L677.151 840.84L677.151 833.208L682.866 833.208L682.866 821.778L693.469 821.778L693.469 833.208L700.124 833.208L700.124 840.84L693.469 840.84L693.469 862.496C693.469 864.176 693.682 865.222 694.108 865.636C694.534 866.049 695.837 866.256 698.018 866.256C698.344 866.256 698.689 866.25 699.052 866.237C699.416 866.225 699.773 866.206 700.124 866.181Z" fill-rule="evenodd"/>
<path clip-path="url(#TextBounds)" d="M742.083 861.782C741.807 864.213 740.541 866.682 738.285 869.189C734.776 873.174 729.863 875.167 723.547 875.167C718.333 875.167 713.734 873.487 709.749 870.129C705.763 866.77 703.771 861.306 703.771 853.736C703.771 846.643 705.569 841.204 709.166 837.419C712.763 833.634 717.431 831.742 723.171 831.742C726.58 831.742 729.65 832.381 732.382 833.659C735.115 834.937 737.37 836.955 739.15 839.712C740.754 842.144 741.794 844.963 742.271 848.172C742.546 850.052 742.659 852.759 742.609 856.293L714.561 856.293C714.712 860.403 716.002 863.286 718.434 864.94C719.913 865.968 721.692 866.482 723.773 866.482C725.978 866.482 727.77 865.855 729.149 864.602C729.901 863.925 730.565 862.985 731.142 861.782L742.083 861.782ZM731.48 849.224C731.305 846.392 730.446 844.243 728.905 842.776C727.363 841.31 725.452 840.577 723.171 840.577C720.69 840.577 718.766 841.354 717.4 842.908C716.034 844.462 715.175 846.568 714.824 849.224L731.48 849.224Z" fill-rule="evenodd"/>
<path clip-path="url(#TextBounds)" d="M770.431 842.72C766.12 842.72 763.225 844.124 761.746 846.931C760.919 848.51 760.505 850.941 760.505 854.225L760.505 873.813L749.715 873.813L749.715 832.832L759.942 832.832L759.942 839.975C761.596 837.243 763.037 835.376 764.265 834.373C766.27 832.694 768.877 831.854 772.086 831.854C772.286 831.854 772.455 831.861 772.593 831.873C772.731 831.886 773.038 831.904 773.514 831.929L773.514 842.908C772.837 842.833 772.236 842.783 771.71 842.758C771.183 842.733 770.757 842.72 770.431 842.72Z" fill-rule="evenodd"/>
<path clip-path="url(#TextBounds)" d="M192.236 949.678C188.1 953.462 182.811 955.355 176.369 955.355C168.399 955.355 162.133 952.798 157.571 947.685C153.009 942.547 150.728 935.503 150.728 926.555C150.728 916.88 153.322 909.423 158.511 904.184C163.022 899.623 168.762 897.342 175.73 897.342C185.055 897.342 191.872 900.4 196.183 906.515C198.565 909.949 199.843 913.396 200.018 916.855L188.438 916.855C187.686 914.198 186.721 912.193 185.543 910.839C183.438 908.433 180.317 907.23 176.181 907.23C171.971 907.23 168.649 908.928 166.218 912.324C163.787 915.721 162.571 920.527 162.571 926.743C162.571 932.959 163.856 937.615 166.425 940.71C168.994 943.806 172.259 945.354 176.219 945.354C180.28 945.354 183.375 944.025 185.506 941.368C186.684 939.94 187.661 937.797 188.438 934.939L199.906 934.939C198.903 940.98 196.346 945.893 192.236 949.678Z" fill-rule="evenodd"/>
<path clip-path="url(#TextBounds)" d="M242.053 918.02C245.512 922.357 247.241 927.482 247.241 933.398C247.241 939.413 245.512 944.558 242.053 948.832C238.594 953.105 233.342 955.242 226.299 955.242C219.256 955.242 214.005 953.105 210.546 948.832C207.087 944.558 205.357 939.413 205.357 933.398C205.357 927.482 207.087 922.357 210.546 918.02C214.005 913.684 219.256 911.516 226.299 911.516C233.342 911.516 238.594 913.684 242.053 918.02ZM226.262 920.577C223.128 920.577 220.716 921.686 219.024 923.904C217.332 926.123 216.486 929.287 216.486 933.398C216.486 937.508 217.332 940.679 219.024 942.91C220.716 945.141 223.128 946.256 226.262 946.256C229.395 946.256 231.801 945.141 233.48 942.91C235.16 940.679 235.999 937.508 235.999 933.398C235.999 929.287 235.16 926.123 233.48 923.904C231.801 921.686 229.395 920.577 226.262 920.577Z" fill-rule="evenodd"/>
<path clip-path="url(#TextBounds)" d="M277.921 924.111C277.018 922.131 275.251 921.141 272.619 921.141C269.562 921.141 267.506 922.131 266.453 924.111C265.877 925.239 265.589 926.918 265.589 929.149L265.589 953.813L254.723 953.813L254.723 912.907L265.138 912.907L265.138 918.885C266.466 916.755 267.719 915.238 268.897 914.336C270.978 912.732 273.672 911.929 276.981 911.929C280.114 911.929 282.646 912.619 284.576 913.997C286.13 915.276 287.308 916.917 288.11 918.923C289.513 916.516 291.255 914.749 293.336 913.621C295.542 912.493 297.998 911.929 300.705 911.929C302.51 911.929 304.289 912.28 306.044 912.982C307.798 913.684 309.39 914.912 310.819 916.667C311.972 918.096 312.749 919.85 313.15 921.93C313.4 923.309 313.526 925.327 313.526 927.984L313.451 953.813L302.472 953.813L302.472 927.721C302.472 926.166 302.221 924.888 301.72 923.886C300.768 921.981 299.013 921.028 296.456 921.028C293.499 921.028 291.456 922.256 290.328 924.713C289.751 926.016 289.463 927.583 289.463 929.412L289.463 953.813L278.673 953.813L278.673 929.412C278.673 926.981 278.422 925.214 277.921 924.111Z" fill-rule="evenodd"/>
<path clip-path="url(#TextBounds)" d="M357.703 917.231C361.012 920.765 362.666 925.953 362.666 932.796C362.666 940.015 361.043 945.517 357.797 949.302C354.551 953.086 350.371 954.979 345.258 954.979C342 954.979 339.293 954.164 337.137 952.535C335.959 951.633 334.806 950.317 333.678 948.587L333.678 969.943L323.076 969.943L323.076 912.832L333.34 912.832L333.34 918.885C334.493 917.105 335.721 915.702 337.024 914.674C339.405 912.844 342.238 911.929 345.521 911.929C350.309 911.929 354.369 913.697 357.703 917.231ZM351.612 933.323C351.612 930.164 350.892 927.37 349.45 924.938C348.009 922.507 345.672 921.291 342.438 921.291C338.553 921.291 335.884 923.134 334.43 926.818C333.678 928.773 333.302 931.255 333.302 934.262C333.302 939.025 334.568 942.371 337.099 944.301C338.603 945.429 340.383 945.993 342.438 945.993C345.421 945.993 347.696 944.84 349.262 942.534C350.829 940.228 351.612 937.158 351.612 933.323Z" fill-rule="evenodd"/>
<path clip-path="url(#TextBounds)" d="M370.637 898.394L381.352 898.394L381.352 953.813L370.637 953.813L370.637 898.394Z" fill-rule="evenodd"/>
<path clip-path="url(#TextBounds)" d="M402.82 912.832L402.82 953.813L391.954 953.813L391.954 912.832L402.82 912.832ZM402.82 898.056L402.82 907.944L391.954 907.944L391.954 898.056L402.82 898.056Z" fill-rule="evenodd"/>
<path clip-path="url(#TextBounds)" d="M414.739 917.268C417.571 913.659 422.434 911.854 429.327 911.854C433.813 911.854 437.799 912.744 441.283 914.524C444.767 916.303 446.509 919.662 446.509 924.6L446.509 943.399C446.509 944.702 446.534 946.281 446.584 948.136C446.659 949.54 446.872 950.492 447.223 950.993C447.574 951.495 448.1 951.908 448.802 952.234L448.802 953.813L437.147 953.813C436.821 952.986 436.595 952.209 436.47 951.482C436.345 950.755 436.244 949.928 436.169 949.001C434.69 950.605 432.986 951.971 431.056 953.099C428.75 954.427 426.143 955.092 423.236 955.092C419.526 955.092 416.462 954.033 414.043 951.915C411.624 949.797 410.415 946.795 410.415 942.91C410.415 937.872 412.357 934.225 416.243 931.969C418.373 930.741 421.506 929.864 425.642 929.337L429.289 928.886C431.269 928.635 432.685 928.322 433.537 927.946C435.066 927.294 435.831 926.279 435.831 924.901C435.831 923.221 435.248 922.062 434.083 921.423C432.917 920.784 431.206 920.464 428.951 920.464C426.419 920.464 424.627 921.091 423.574 922.344C422.822 923.271 422.321 924.525 422.07 926.104L411.731 926.104C411.956 922.519 412.959 919.574 414.739 917.268ZM422.709 946.068C423.712 946.895 424.94 947.309 426.394 947.309C428.7 947.309 430.824 946.632 432.767 945.279C434.709 943.925 435.718 941.456 435.793 937.872L435.793 933.887C435.117 934.313 434.434 934.657 433.744 934.92C433.055 935.184 432.109 935.428 430.906 935.654L428.499 936.105C426.244 936.506 424.627 936.995 423.649 937.571C421.995 938.549 421.168 940.065 421.168 942.12C421.168 943.95 421.682 945.266 422.709 946.068Z" fill-rule="evenodd"/>
<path clip-path="url(#TextBounds)" d="M475.308 920.765C471.674 920.765 469.18 922.306 467.827 925.389C467.125 927.019 466.774 929.099 466.774 931.631L466.774 953.813L456.096 953.813L456.096 912.907L466.435 912.907L466.435 918.885C467.814 916.78 469.117 915.263 470.346 914.336C472.551 912.681 475.346 911.854 478.73 911.854C482.966 911.854 486.431 912.963 489.126 915.182C491.82 917.4 493.167 921.078 493.167 926.217L493.167 953.813L482.189 953.813L482.189 928.886C482.189 926.73 481.901 925.076 481.324 923.923C480.271 921.818 478.266 920.765 475.308 920.765Z" fill-rule="evenodd"/>
<path clip-path="url(#TextBounds)" d="M538.51 927.533L527.532 927.533C527.331 926.004 526.817 924.625 525.99 923.397C524.787 921.742 522.92 920.915 520.388 920.915C516.779 920.915 514.31 922.707 512.981 926.292C512.279 928.197 511.929 930.728 511.929 933.887C511.929 936.894 512.279 939.313 512.981 941.143C514.26 944.552 516.666 946.256 520.2 946.256C522.707 946.256 524.486 945.579 525.539 944.226C526.592 942.872 527.231 941.118 527.456 938.962L538.397 938.962C538.147 942.221 536.969 945.304 534.863 948.211C531.504 952.898 526.529 955.242 519.937 955.242C513.345 955.242 508.495 953.287 505.387 949.377C502.278 945.467 500.724 940.391 500.724 934.15C500.724 927.106 502.441 921.63 505.875 917.72C509.309 913.809 514.047 911.854 520.087 911.854C525.226 911.854 529.43 913.007 532.701 915.313C535.972 917.619 537.909 921.692 538.51 927.533Z" fill-rule="evenodd"/>
<path clip-path="url(#TextBounds)" d="M580.958 941.782C580.682 944.213 579.416 946.682 577.16 949.189C573.651 953.174 568.739 955.167 562.422 955.167C557.209 955.167 552.609 953.487 548.624 950.129C544.639 946.77 542.646 941.306 542.646 933.736C542.646 926.643 544.444 921.204 548.041 917.419C551.638 913.634 556.306 911.742 562.046 911.742C565.455 911.742 568.526 912.381 571.258 913.659C573.99 914.937 576.246 916.955 578.025 919.712C579.629 922.144 580.67 924.963 581.146 928.172C581.422 930.052 581.534 932.759 581.484 936.293L553.436 936.293C553.587 940.403 554.878 943.286 557.309 944.94C558.788 945.968 560.567 946.482 562.648 946.482C564.854 946.482 566.646 945.855 568.024 944.602C568.776 943.925 569.44 942.985 570.017 941.782L580.958 941.782ZM570.355 929.224C570.18 926.392 569.321 924.243 567.78 922.776C566.238 921.31 564.327 920.577 562.046 920.577C559.565 920.577 557.641 921.354 556.275 922.908C554.909 924.462 554.05 926.568 553.7 929.224L570.355 929.224Z" fill-rule="evenodd"/>
<path clip-path="url(#TextBounds)" d="M621.075 945.805C623.807 945.805 626.025 945.504 627.729 944.903C630.963 943.75 632.579 941.607 632.579 938.473C632.579 936.644 631.777 935.228 630.173 934.225C628.569 933.247 626.05 932.383 622.616 931.631L616.751 930.315C610.986 929.011 607.001 927.595 604.795 926.066C601.06 923.51 599.193 919.512 599.193 914.073C599.193 909.11 600.997 904.986 604.607 901.703C608.216 898.419 613.517 896.778 620.511 896.778C626.351 896.778 631.332 898.325 635.456 901.421C639.579 904.516 641.741 909.009 641.941 914.9L630.812 914.9C630.612 911.566 629.158 909.197 626.451 907.794C624.646 906.866 622.403 906.403 619.721 906.403C616.738 906.403 614.357 907.004 612.577 908.207C610.798 909.41 609.908 911.09 609.908 913.245C609.908 915.226 610.785 916.704 612.54 917.682C613.668 918.334 616.074 919.098 619.759 919.975L629.308 922.269C633.494 923.271 636.653 924.612 638.783 926.292C642.092 928.899 643.746 932.671 643.746 937.609C643.746 942.672 641.81 946.877 637.937 950.223C634.065 953.569 628.594 955.242 621.526 955.242C614.307 955.242 608.63 953.594 604.494 950.298C600.358 947.002 598.29 942.471 598.29 936.706L609.344 936.706C609.695 939.238 610.384 941.13 611.412 942.384C613.292 944.665 616.513 945.805 621.075 945.805Z" fill-rule="evenodd"/>
<path clip-path="url(#TextBounds)" d="M668.109 943.06L676.569 912.832L687.961 912.832L673.899 953.137C671.192 960.907 669.049 965.725 667.47 967.593C665.891 969.46 662.733 970.394 657.995 970.394C657.043 970.394 656.278 970.388 655.702 970.375C655.126 970.363 654.261 970.319 653.108 970.243L653.108 961.671L654.461 961.746C655.514 961.797 656.517 961.759 657.469 961.634C658.422 961.508 659.224 961.22 659.875 960.769C660.502 960.343 661.085 959.453 661.624 958.099C662.163 956.746 662.382 955.919 662.282 955.618L647.243 912.832L659.161 912.832L668.109 943.06Z" fill-rule="evenodd"/>
<path clip-path="url(#TextBounds)" d="M722.513 914.712C725.721 916.767 727.564 920.301 728.04 925.314L717.325 925.314C717.174 923.936 716.786 922.845 716.159 922.043C714.981 920.589 712.976 919.863 710.143 919.863C707.812 919.863 706.152 920.226 705.162 920.953C704.172 921.68 703.677 922.532 703.677 923.51C703.677 924.738 704.203 925.628 705.256 926.179C706.308 926.755 710.031 927.746 716.422 929.149C720.683 930.152 723.879 931.668 726.01 933.699C728.115 935.754 729.168 938.323 729.168 941.406C729.168 945.467 727.658 948.781 724.637 951.351C721.617 953.92 716.949 955.204 710.632 955.204C704.19 955.204 699.434 953.845 696.364 951.125C693.293 948.405 691.758 944.94 691.758 940.729L702.624 940.729C702.849 942.634 703.338 943.988 704.09 944.79C705.419 946.219 707.875 946.933 711.459 946.933C713.565 946.933 715.238 946.62 716.479 945.993C717.719 945.366 718.34 944.426 718.34 943.173C718.34 941.97 717.838 941.055 716.836 940.429C715.833 939.802 712.111 938.724 705.669 937.195C701.032 936.042 697.761 934.601 695.856 932.871C693.951 931.167 692.999 928.711 692.999 925.502C692.999 921.717 694.484 918.465 697.454 915.746C700.424 913.026 704.604 911.666 709.993 911.666C715.106 911.666 719.28 912.681 722.513 914.712Z" fill-rule="evenodd"/>
<path clip-path="url(#TextBounds)" d="M755.862 946.181L755.862 954.189L750.786 954.377C745.723 954.553 742.264 953.675 740.41 951.745C739.206 950.517 738.605 948.625 738.605 946.068L738.605 920.84L732.89 920.84L732.89 913.208L738.605 913.208L738.605 901.778L749.207 901.778L749.207 913.208L755.862 913.208L755.862 920.84L749.207 920.84L749.207 942.496C749.207 944.176 749.42 945.222 749.847 945.636C750.273 946.049 751.576 946.256 753.757 946.256C754.083 946.256 754.427 946.25 754.791 946.237C755.154 946.225 755.511 946.206 755.862 946.181Z" fill-rule="evenodd"/>
<path clip-path="url(#TextBounds)" d="M797.821 941.782C797.545 944.213 796.28 946.682 794.024 949.189C790.515 953.174 785.602 955.167 779.285 955.167C774.072 955.167 769.473 953.487 765.487 950.129C761.502 946.77 759.509 941.306 759.509 933.736C759.509 926.643 761.308 921.204 764.904 917.419C768.501 913.634 773.17 911.742 778.91 911.742C782.318 911.742 785.389 912.381 788.121 913.659C790.853 914.937 793.109 916.955 794.889 919.712C796.493 922.144 797.533 924.963 798.009 928.172C798.285 930.052 798.398 932.759 798.348 936.293L770.3 936.293C770.45 940.403 771.741 943.286 774.172 944.94C775.651 945.968 777.431 946.482 779.511 946.482C781.717 946.482 783.509 945.855 784.888 944.602C785.64 943.925 786.304 942.985 786.88 941.782L797.821 941.782ZM787.219 929.224C787.043 926.392 786.185 924.243 784.643 922.776C783.102 921.31 781.19 920.577 778.91 920.577C776.428 920.577 774.504 921.354 773.138 922.908C771.772 924.462 770.914 926.568 770.563 929.224L787.219 929.224Z" fill-rule="evenodd"/>
<path clip-path="url(#TextBounds)" d="M828.576 924.111C827.674 922.131 825.907 921.141 823.275 921.141C820.217 921.141 818.161 922.131 817.109 924.111C816.532 925.239 816.244 926.918 816.244 929.149L816.244 953.813L805.378 953.813L805.378 912.907L815.793 912.907L815.793 918.885C817.121 916.755 818.375 915.238 819.553 914.336C821.633 912.732 824.327 911.929 827.636 911.929C830.769 911.929 833.301 912.619 835.231 913.997C836.785 915.276 837.963 916.917 838.765 918.923C840.169 916.516 841.911 914.749 843.991 913.621C846.197 912.493 848.653 911.929 851.36 911.929C853.165 911.929 854.945 912.28 856.699 912.982C858.454 913.684 860.045 914.912 861.474 916.667C862.627 918.096 863.404 919.85 863.805 921.93C864.056 923.309 864.181 925.327 864.181 927.984L864.106 953.813L853.127 953.813L853.127 927.721C853.127 926.166 852.877 924.888 852.375 923.886C851.423 921.981 849.668 921.028 847.112 921.028C844.154 921.028 842.111 922.256 840.983 924.713C840.407 926.016 840.119 927.583 840.119 929.412L840.119 953.813L829.328 953.813L829.328 929.412C829.328 926.981 829.077 925.214 828.576 924.111Z" fill-rule="evenodd"/>
</g>
</g>
</svg>
