<?xml version="1.0" encoding="utf-8"?>
<!-- Generator: Adobe Illustrator 24.0.1, SVG Export Plug-In . SVG Version: 6.00 Build 0)  -->
<svg version="1.1" id="Layer_1" xmlns="http://www.w3.org/2000/svg" xmlns:xlink="http://www.w3.org/1999/xlink" x="0px" y="0px"
	 viewBox="0 0 288.8 320.6" style="enable-background:new 0 0 288.8 320.6;" xml:space="preserve">
<style type="text/css">
	.st0{fill:#FFFFFE;}
	.st1{fill:#FFFFFF;}
	.st2{fill:#DDDDDD;}
	.st3{fill:#1C2B3F;}
	.st4{fill:#42AA8C;}
</style>
<g>
	<path class="st1" d="M166.2,42.9c-39.8,10.9-74.5,43-86.9,80.9c29.9,1,59.1-1.8,86.9-5.3V42.9z"/>
	<path id="Shape_1_" class="st2" d="M205.7,97.4c0,2-1.6,3.7-3.7,3.7h-36.6v-7.3H202C204.1,93.7,205.7,95.3,205.7,97.4z"/>
	<path class="st2" d="M165.5,84.4h18.3c6.1,0,11-4.9,11-11V50.8c5-1.8,8.1-6.9,7.2-12.2c-0.9-5.3-5.5-9.1-10.8-9.1
		c-5.3,0-9.9,3.9-10.8,9.1c-0.9,5.3,2.1,10.4,7.2,12.2v22.6c0,2-1.6,3.7-3.7,3.7h-18.3V84.4z M191.1,46.5c-3.4,0-6.1-2.7-6.1-6.1
		c0-3.4,2.7-6.1,6.1-6.1s6.1,2.7,6.1,6.1C197.2,43.8,194.5,46.5,191.1,46.5z"/>
	<path class="st2" d="M256.9,146.3L256.9,146.3c5.6,0,10.3-4.2,10.9-9.7c0.6-5.5-3-10.7-8.4-11.9c-5.4-1.3-10.9,1.7-12.8,7h-81.2
		v7.3h81.2C248.2,143.3,252.3,146.2,256.9,146.3z M257.2,141.4c-3.4,0-6.1-2.7-6.1-6.1c0-3.4,2.7-6.1,6.1-6.1c3.4,0,6.1,2.7,6.1,6.1
		C263.3,138.7,260.5,141.4,257.2,141.4z"/>
	<g>
		<path class="st3" d="M157.4,32.6c-2.1,0.2-4.2,0.5-6.3,0.8c-6.7,1-13.4,3.1-19.8,5.2c-12.8,4.4-25,9.9-37,16.1
			c1,3.1,2.7,5.8,4.1,8.7c0.2,0.5,0.8,1.4,0.2,1.8c-1.4,1-3,1.6-4.3,2.8c-2.7,2.4-5,5.4-6.9,8.5c-2.9,4.7-5.3,9.6-7.6,14.7
			c-3.6,7.5-6.6,15.4-9.2,23.3c-1,3.2-2.1,6.4-3.1,9.6c-9,0.4-17.1,3.2-25.5,6.1c-4.7,1.6-9.3,3.6-14,5.5c-2.5,1.1-4.9,1.9-7.1,3.4
			h145.3v-17.8v-5c-25.6,3.2-52.6,5.8-80.1,4.9c11.4-35,43.5-64.6,80.1-74.7v-14C163.2,32.4,160.3,32.3,157.4,32.6z"/>
		<path class="st4" d="M166.2,54.5c-31.4,8.1-58.9,32-68.7,60.2c23.6,0.7,46.8-1.3,68.7-3.9V54.5z"/>
	</g>
	<g id="_7-Check_2_">
		<path class="st1" d="M129.7,88.5c-1.7,0-3.2,1.4-3.2,3.2c0,0.7,0.3,1.4,0.7,2l8,9.8c0.6,0.7,1.5,1.1,2.4,1.1
			c1-0.1,1.9-0.6,2.4-1.4l16.7-26.9c0,0,0,0,0,0c0.2-0.2,0.1-0.7-0.2-1c-0.4-0.3-0.9-0.3-1.3,0c0,0,0,0,0,0c0,0,0,0,0,0l-16.8,19
			c-0.3,0.3-0.7,0.3-1,0.1c0,0,0,0,0,0l-5.6-5.1C131.2,88.8,130.5,88.5,129.7,88.5L129.7,88.5z"/>
	</g>
	<path class="st2" d="M238.5,75.5c-0.9-5.3-5.5-9.1-10.8-9.1c-5.3,0-9.9,3.9-10.8,9.1s2.1,10.4,7.2,12.2v19c0,2-1.6,3.7-3.7,3.7
		h-54.2v7.3h54.2v0c6.1,0,11-4.9,11-11v-19C236.3,85.9,239.4,80.8,238.5,75.5z M227.8,83.5c-3.4,0-6.1-2.7-6.1-6.1
		c0-3.4,2.7-6.1,6.1-6.1c3.4,0,6.1,2.7,6.1,6.1C233.9,80.8,231.2,83.5,227.8,83.5z"/>
	<g>
		<path class="st3" d="M38.7,164.2h15.4l12.6,20.4l12.6-20.4h15.4v52.7H80.2v-30.3l-13.4,20.6h-0.3l-13.4-20.5v30.1H38.7V164.2z"/>
		<path class="st3" d="M124.7,218c-3.8,0-7.3-0.7-10.6-2c-3.3-1.4-6.2-3.2-8.6-5.7c-2.4-2.4-4.4-5.3-5.8-8.7
			c-1.4-3.3-2.1-7-2.1-10.9v-0.2c0-3.8,0.7-7.4,2.1-10.7c1.4-3.3,3.3-6.2,5.8-8.7c2.5-2.5,5.4-4.4,8.8-5.8c3.4-1.4,7.1-2.1,11.1-2.1
			c2.7,0,5.2,0.3,7.4,0.8c2.2,0.5,4.2,1.3,6.1,2.3c1.8,1,3.5,2.1,5,3.5c1.5,1.4,2.8,2.8,4,4.4l-11,8.5c-1.5-1.9-3.2-3.4-5-4.5
			c-1.8-1.1-4-1.7-6.5-1.7c-1.9,0-3.6,0.4-5.1,1.1c-1.5,0.7-2.8,1.7-4,3c-1.1,1.3-2,2.7-2.6,4.4c-0.6,1.7-0.9,3.5-0.9,5.4v0.2
			c0,2,0.3,3.8,0.9,5.5c0.6,1.7,1.5,3.2,2.6,4.5c1.1,1.3,2.4,2.2,4,3c1.5,0.7,3.2,1.1,5.1,1.1c1.4,0,2.6-0.2,3.7-0.5
			c1.1-0.3,2.2-0.7,3.1-1.3c0.9-0.6,1.8-1.3,2.6-2c0.8-0.8,1.6-1.6,2.4-2.6l11,7.8c-1.3,1.7-2.6,3.3-4.1,4.7c-1.5,1.5-3.2,2.7-5,3.8
			c-1.9,1.1-4,1.9-6.3,2.5C130.2,217.7,127.6,218,124.7,218z"/>
		<path class="st3" d="M228.7,217.8c-4.7,0-9.2-0.7-13.4-2.2c-4.2-1.5-8-3.7-11.3-6.6l8.1-9.7c5.3,4.2,11,6.3,17.1,6.3
			c2,0,3.4-0.3,4.5-0.9c1-0.6,1.5-1.5,1.5-2.7v-0.1c0-0.6-0.1-1-0.4-1.5c-0.3-0.4-0.7-0.8-1.4-1.2c-0.7-0.4-1.6-0.8-2.7-1.2
			c-1.1-0.4-2.6-0.8-4.4-1.2c-2.8-0.6-5.4-1.4-7.8-2.1c-2.4-0.8-4.5-1.8-6.3-3c-1.8-1.2-3.2-2.8-4.2-4.6c-1-1.8-1.5-4.1-1.5-6.8
			v-0.2c0-2.5,0.5-4.7,1.4-6.8c0.9-2.1,2.3-3.8,4.1-5.3c1.8-1.5,3.9-2.7,6.4-3.5c2.5-0.8,5.3-1.2,8.5-1.2c4.5,0,8.5,0.6,12.1,1.8
			c3.5,1.2,6.7,2.9,9.6,5.3l-7.3,10.3c-2.4-1.7-4.9-3-7.4-3.9c-2.5-0.9-5-1.3-7.3-1.3c-1.8,0-3.1,0.3-4,1c-0.9,0.7-1.3,1.5-1.3,2.4
			v0.2c0,0.6,0.1,1.1,0.4,1.6c0.3,0.5,0.8,0.9,1.4,1.2c0.7,0.4,1.6,0.8,2.8,1.1c1.2,0.4,2.7,0.8,4.5,1.2c3,0.7,5.7,1.4,8.2,2.3
			c2.4,0.9,4.5,1.9,6.2,3.2c1.7,1.3,3,2.8,3.9,4.5c0.9,1.8,1.4,3.9,1.4,6.3v0.2c0,2.7-0.5,5.1-1.5,7.2c-1,2.1-2.5,3.9-4.3,5.4
			c-1.9,1.5-4.1,2.6-6.7,3.4C234.9,217.4,232,217.8,228.7,217.8z"/>
		<path class="st3" d="M177.9,219.3c-3.8,0-7.3-0.7-10.6-2c-3.3-1.4-6.2-3.2-8.6-5.7c-2.4-2.4-4.4-5.3-5.8-8.7
			c-1.4-3.3-2.1-7-2.1-10.9v-0.2c0-3.8,0.7-7.4,2.1-10.7c1.4-3.3,3.3-6.2,5.8-8.7c2.5-2.5,5.4-4.4,8.8-5.8c3.4-1.4,7.1-2.1,11.1-2.1
			c2.7,0,5.2,0.3,7.4,0.8c2.2,0.5,4.2,1.3,6.1,2.3c1.8,1,3.5,2.1,5,3.5c1.5,1.4,2.8,2.8,4,4.4l-11,8.5c-1.5-1.9-3.2-3.4-5-4.5
			c-1.8-1.1-4-1.7-6.5-1.7c-1.9,0-3.6,0.4-5.1,1.1c-1.5,0.7-2.8,1.7-4,3c-1.1,1.3-2,2.7-2.6,4.4c-0.6,1.7-0.9,3.5-0.9,5.4v0.2
			c0,2,0.3,3.8,0.9,5.5c0.6,1.7,1.5,3.2,2.6,4.5c1.1,1.3,2.4,2.2,4,3c1.5,0.7,3.2,1.1,5.1,1.1c1.4,0,2.6-0.2,3.7-0.5
			c1.1-0.3,2.2-0.7,3.1-1.3c0.9-0.6,1.8-1.3,2.6-2c0.8-0.8,1.6-1.6,2.4-2.6l11,7.8c-1.3,1.7-2.6,3.3-4.1,4.7c-1.5,1.5-3.2,2.7-5,3.8
			c-1.9,1.1-4,1.9-6.3,2.5C183.5,219,180.9,219.3,177.9,219.3z"/>
	</g>
	<g>
		<polygon class="st4" points="39,232.9 65.3,232.7 91.7,232.5 144.4,232.4 197.1,232.5 223.4,232.7 249.8,232.9 223.4,233.2 
			197.1,233.3 144.4,233.4 91.7,233.3 65.3,233.2 		"/>
	</g>
	<g>
		<path class="st3" d="M43,252.1h0.5l7.1,10.1l7.1-10.1h0.5v16.2h-0.5v-15.4l-7,10h0l-7-10v15.4H43V252.1z"/>
		<path class="st3" d="M63.1,252.1h0.5v16.2h-0.5V252.1z"/>
		<path class="st3" d="M68.6,252.1H69l12.3,15.4v-15.4h0.5v16.2h-0.4l-12.3-15.4v15.4h-0.5V252.1z"/>
		<path class="st3" d="M86.9,252.1h0.5v16.2h-0.5V252.1z"/>
		<path class="st3" d="M92.4,252.1h0.4l12.3,15.4v-15.4h0.5v16.2h-0.4l-12.3-15.4v15.4h-0.5V252.1z"/>
		<path class="st3" d="M109.7,260.2L109.7,260.2c0-4.4,3.1-8.4,8-8.4c2.5,0,4,0.7,5.6,2.1l-0.3,0.4c-1.5-1.2-3-2-5.3-2
			c-4.6,0-7.5,3.9-7.5,7.9v0c0,4.2,2.8,7.9,7.5,7.9c2.4,0,4.4-1.1,5.8-2.2v-5.2h-6v-0.5h6.5v5.9c-1.5,1.4-3.7,2.5-6.3,2.5
			C112.7,268.6,109.7,264.8,109.7,260.2z"/>
		<path class="st3" d="M134.3,260.2L134.3,260.2c0-4.6,3.3-8.4,8-8.4c3.1,0,4.7,1.1,6.2,2.6l-0.3,0.3c-1.3-1.3-2.9-2.5-5.8-2.5
			c-4.3,0-7.4,3.7-7.4,7.9v0c0,4.3,3.2,7.9,7.4,7.9c2.6,0,4.6-1.3,5.9-2.6l0.4,0.3c-1.4,1.5-3.5,2.8-6.3,2.8
			C137.7,268.6,134.3,264.8,134.3,260.2z"/>
		<path class="st3" d="M151.9,252.1h0.5v7.8H164v-7.8h0.5v16.2H164v-8h-11.6v8h-0.5V252.1z"/>
		<path class="st3" d="M175.6,252h0.4l7.8,16.4h-0.6l-2.3-4.9h-10.4l-2.3,4.9h-0.5L175.6,252z M180.8,263l-4.9-10.4l-4.9,10.4H180.8
			z"/>
		<path class="st3" d="M187.2,252.1h6.6c2.1,0,3.7,0.5,4.7,1.5c0.7,0.7,1.2,1.8,1.2,3v0c0,2.7-2.2,4.4-5.3,4.5l5.4,7.1h-0.6
			l-5.4-7.1h-0.1h-6v7.1h-0.5V252.1z M193.5,260.8c3.8,0,5.6-1.8,5.6-4.1v0c0-2.6-2-4.1-5.4-4.1h-6.1v8.2H193.5z"/>
		<path class="st3" d="M207.8,252.5h-5.9v-0.5h12.3v0.5h-5.9v15.8h-0.5V252.5z"/>
		<path class="st3" d="M217.2,252.1h11.3v0.5h-10.8v7.4h9.8v0.5h-9.8v7.5h11v0.5h-11.5V252.1z"/>
		<path class="st3" d="M232.6,252.1h6.6c2.1,0,3.7,0.5,4.7,1.5c0.7,0.7,1.2,1.8,1.2,3v0c0,2.7-2.2,4.4-5.3,4.5l5.4,7.1h-0.6
			l-5.4-7.1h-0.1h-6v7.1h-0.5V252.1z M239,260.8c3.8,0,5.6-1.8,5.6-4.1v0c0-2.6-2-4.1-5.4-4.1h-6.1v8.2H239z"/>
		<path class="st3" d="M41.9,284.3L41.9,284.3c0-3.7,2.7-6.8,6.5-6.8c2.5,0,3.8,0.9,5,2.1l-0.3,0.3c-1.1-1-2.4-2-4.7-2
			c-3.5,0-6,3-6,6.4v0c0,3.5,2.6,6.4,6,6.4c2.1,0,3.7-1,4.8-2.1l0.3,0.3c-1.1,1.2-2.8,2.2-5.1,2.2C44.7,291.1,41.9,288.1,41.9,284.3
			z"/>
		<path class="st3" d="M55.2,284.3L55.2,284.3c0-3.6,2.6-6.8,6.5-6.8s6.5,3.2,6.5,6.8v0c0,3.6-2.6,6.8-6.5,6.8
			S55.2,287.9,55.2,284.3z M67.9,284.3L67.9,284.3c0-3.4-2.5-6.5-6.1-6.5c-3.7,0-6.1,3-6.1,6.4v0c0,3.4,2.5,6.4,6.1,6.4
			C65.4,290.7,67.9,287.7,67.9,284.3z"/>
		<path class="st3" d="M71.6,277.7H72l5.7,8.2l5.7-8.2h0.4v13.2h-0.4v-12.5l-5.7,8.1h0l-5.7-8.1v12.5h-0.4V277.7z"/>
		<path class="st3" d="M87.7,277.7h4.6c3.2,0,5.1,1.5,5.1,3.9v0c0,2.6-2,4-5.1,4h-4.1v5.2h-0.4V277.7z M92.3,285.3
			c2.9,0,4.7-1.3,4.7-3.6v0c0-2.2-1.7-3.6-4.7-3.6h-4.2v7.2H92.3z"/>
		<path class="st3" d="M100.3,277.7h0.4v12.8h8.1v0.4h-8.5V277.7z"/>
		<path class="st3" d="M111.4,277.7h0.4v13.2h-0.4V277.7z"/>
		<path class="st3" d="M120.9,277.6h0.4l6.3,13.2h-0.5l-1.9-3.9h-8.4l-1.9,3.9h-0.4L120.9,277.6z M125.1,286.6l-4-8.4l-4,8.4H125.1z
			"/>
		<path class="st3" d="M130.3,277.7h0.4l10,12.5v-12.5h0.4v13.2h-0.4l-10-12.5v12.5h-0.4V277.7z"/>
		<path class="st3" d="M144.4,284.3L144.4,284.3c0-3.7,2.7-6.8,6.5-6.8c2.5,0,3.8,0.9,5,2.1l-0.3,0.3c-1.1-1-2.4-2-4.7-2
			c-3.5,0-6,3-6,6.4v0c0,3.5,2.6,6.4,6,6.4c2.1,0,3.7-1,4.8-2.1l0.3,0.3c-1.1,1.2-2.8,2.2-5.1,2.2
			C147.1,291.1,144.4,288.1,144.4,284.3z"/>
		<path class="st3" d="M158.6,277.7h9.2v0.4H159v6h8v0.4h-8v6.1h8.9v0.4h-9.3V277.7z"/>
		<path class="st3" d="M175.4,289l0.3-0.3c1.3,1.3,3,2,4.9,2c2.5,0,4-1.3,4-3.1v0c0-1.6-1-2.5-4.3-3.2c-3.3-0.7-4.5-1.6-4.5-3.5v0
			c0-1.8,1.8-3.4,4.3-3.4c1.7,0,3.3,0.6,4.5,1.5l-0.3,0.3c-1.2-0.9-2.6-1.5-4.2-1.5c-2.3,0-3.8,1.4-3.8,3v0c0,1.6,1,2.4,4.2,3.1
			c3.4,0.7,4.5,1.7,4.5,3.5v0c0,2-1.7,3.5-4.5,3.5C178.6,291.1,176.8,290.3,175.4,289z"/>
		<path class="st3" d="M191.8,285.4l-5.6-7.6h0.5l5.3,7.3l5.2-7.3h0.5l-5.5,7.6v5.5h-0.4V285.4z"/>
		<path class="st3" d="M198.6,289l0.3-0.3c1.3,1.3,3,2,4.9,2c2.5,0,4-1.3,4-3.1v0c0-1.6-1-2.5-4.3-3.2c-3.3-0.7-4.5-1.6-4.5-3.5v0
			c0-1.8,1.8-3.4,4.3-3.4c1.7,0,3.3,0.6,4.5,1.5l-0.3,0.3c-1.2-0.9-2.6-1.5-4.2-1.5c-2.3,0-3.8,1.4-3.8,3v0c0,1.6,1,2.4,4.2,3.1
			c3.4,0.7,4.5,1.7,4.5,3.5v0c0,2-1.7,3.5-4.5,3.5C201.8,291.1,200,290.3,198.6,289z"/>
		<path class="st3" d="M214.5,278.1h-4.8v-0.4h9.9v0.4H215v12.8h-0.4V278.1z"/>
		<path class="st3" d="M222.2,277.7h9.2v0.4h-8.8v6h8v0.4h-8v6.1h8.9v0.4h-9.3V277.7z"/>
		<path class="st3" d="M234.6,277.7h0.4l5.7,8.2l5.7-8.2h0.4v13.2h-0.4v-12.5l-5.7,8.1h0l-5.7-8.1v12.5h-0.4V277.7z"/>
	</g>
</g>
</svg>
